<svg xmlns="http://www.w3.org/2000/svg" viewBox="0 0 16.65 15.9"><defs><style>.cls-1{fill:#222220;}</style></defs><g id="Capa_2" data-name="Capa 2"><g id="Capa_1-2" data-name="Capa 1"><path class="cls-1" d="M0,8.46V0H5.13V1H1.05V4.12H4.8v.94H1.05v3.4Z"/><path class="cls-1" d="M5.31,6.73c0-1,.8-1.7,2.21-1.78l1.75-.1V4.34c0-.74-.5-1.19-1.34-1.19a1.29,1.29,0,0,0-1.41,1h-1A2.14,2.14,0,0,1,8,2.26c1.43,0,2.34.77,2.34,2V8.46h-1V7.41h0a2.25,2.25,0,0,1-2,1.15A1.83,1.83,0,0,1,5.31,6.73Zm4-.59v-.5l-1.63.1c-.82,0-1.29.42-1.29,1s.48,1,1.22,1A1.6,1.6,0,0,0,9.27,6.14Z"/><path class="cls-1" d="M12.08,14.77h0v1h-1V0h1V10.72h0A2.15,2.15,0,0,1,14.08,9.6c1.53,0,2.57,1.24,2.57,3.15s-1,3.15-2.59,3.15A2.18,2.18,0,0,1,12.08,14.77Zm0-2c0,1.36.73,2.26,1.76,2.26s1.75-.87,1.75-2.26-.67-2.26-1.75-2.26S12.1,11.4,12.1,12.75Z"/><path class="cls-1" d="M5.31,14.07c0-1,.8-1.7,2.21-1.78l1.75-.1v-.51c0-.74-.5-1.19-1.34-1.19a1.29,1.29,0,0,0-1.41,1h-1A2.15,2.15,0,0,1,8,9.6c1.43,0,2.34.77,2.34,2V15.8h-1V14.75h0a2.25,2.25,0,0,1-2,1.15A1.83,1.83,0,0,1,5.31,14.07Zm4-.59V13l-1.63.1c-.82.06-1.29.42-1.29,1s.48,1,1.22,1A1.6,1.6,0,0,0,9.27,13.48Z"/><path class="cls-1" d="M5.13,15.8H0V9.6H1.05v5.25H5.13Z"/></g></g></svg>