<svg xmlns="http://www.w3.org/2000/svg" viewBox="0 0 799.43 799.65"><g id="Capa_2" data-name="Capa 2"><g id="Capa_1-2" data-name="Capa 1"><path d="M400.22,799.59q-126.25,0-252.49,0c-31.52,0-61-7.5-87.33-25.45-28.34-19.35-45.93-46.2-54.76-79.22C.8,676.76,0,658.37,0,639.8Q.06,394.58.05,149.37c0-39.63,11.16-75.36,38.47-105C51.87,29.93,68.15,19.54,86.33,12,106.55,3.51,127.76.33,149.4.26,221.27,0,293.15.13,365,.2c13,0,25.09,2.19,31.34,15.84,8.35,18.21-2.41,37.87-22.19,40.28a86.05,86.05,0,0,1-10.41.43c-71.87,0-143.74-.07-215.62.08C127.79,56.87,108.65,61.94,92,74c-25.11,18.21-35.12,44.09-35.21,74.1-.25,81.39-.09,162.78-.09,244.17q0,129.74,0,259.47c0,22.43,6.08,42.91,20.5,60.55,13.23,16.18,30.72,25,50.82,28.7,8.81,1.62,18,1.83,27,1.83q248.31.17,496.62.07c20.92,0,40.13-5.52,57.12-18.12,20.09-14.89,29.59-35.61,32.86-59.68a147.76,147.76,0,0,0,1.08-19.4q.1-105.39.09-210.78a63.85,63.85,0,0,1,1.1-13.11c2.78-13.16,13.18-21.22,27-21.44,13.49-.23,24.23,8.07,27.13,21.35a58.7,58.7,0,0,1,1.22,12.41c.08,72.58.3,145.16,0,217.74-.18,39-11.35,74.5-38.46,103.59a129.27,129.27,0,0,1-70.29,39.36,223.48,223.48,0,0,1-42.67,4.57C565.29,799.81,482.75,799.59,400.22,799.59Z"/><path d="M591.25,106.27,560.89,75.91a13.92,13.92,0,0,0-19.62-.07q-59.85,59.07-119.45,118.39Q315.15,300,208.57,405.88c-17.81,17.72-29.45,39.33-35.34,63.56-12.52,51.48-24.18,103.16-36.31,154.73-5.7,24.23,13.86,44.29,38.18,38.68,51-11.77,101.93-23.49,152.78-35.69a133.89,133.89,0,0,0,64.54-36.31q68.46-68.76,136.82-137.6Q626.34,355.65,723.4,258a13.92,13.92,0,0,0,0-19.65Zm-70,273.46C465,435.61,408.37,491.09,352.82,547.63,338.67,562,323.31,570.94,303.74,575c-31.93,6.53-63.57,14.48-95.34,21.8-1.79.41-3.64.58-6.08,1a32.5,32.5,0,0,1,.36-5.39c9-37.29,18.24-74.54,27.21-111.85a60.79,60.79,0,0,1,16.3-29.33q150.4-150.54,300.91-301c.65-.65,1.38-1.21,2.09-1.83L651.75,250.91c-4.1,3.78-8.75,7.83-13.12,12.16Q579.89,321.36,521.24,379.73Z"/><path d="M772.17,208.56a13.92,13.92,0,0,1-19.58-.09L620.83,76.68,590.28,46.13a13.91,13.91,0,0,1,0-19.67L612.66,4.07a13.91,13.91,0,0,1,19.67,0L794.87,166.61a13.92,13.92,0,0,1-.09,19.77Z"/></g></g></svg>