<svg xmlns="http://www.w3.org/2000/svg" viewBox="0 0 16.65 16.03"><defs><style>.cls-1{fill:#1d1d1b;}</style></defs><g id="Capa_2" data-name="Capa 2"><g id="Capa_1-2" data-name="Capa 1"><path class="cls-1" d="M0,8.46V0H5.13V1H1.05V4.12H4.8v.94H1.05v3.4Z"/><path class="cls-1" d="M12.08,14.89h0v.91h-1v-8h1v3h.07a2.16,2.16,0,0,1,1.95-1.13c1.54,0,2.57,1.24,2.57,3.15S15.62,16,14.06,16A2.2,2.2,0,0,1,12.08,14.89Zm0-2c0,1.36.73,2.26,1.77,2.26s1.74-.86,1.74-2.26-.67-2.25-1.74-2.25S12.1,11.52,12.1,12.87Z"/><path class="cls-1" d="M12.08,7.55h0v.27h-1V0h1V3.5h.07a2.17,2.17,0,0,1,1.95-1.12c1.54,0,2.57,1.24,2.57,3.15s-1,3.15-2.59,3.15A2.19,2.19,0,0,1,12.08,7.55Zm0-2c0,1.36.73,2.26,1.77,2.26s1.74-.86,1.74-2.26-.67-2.25-1.74-2.25S12.1,4.18,12.1,5.53Z"/><path class="cls-1" d="M5.13,15.8H0V9.6H1.05v5.25H5.13Z"/><path class="cls-1" d="M8,2.26A2.14,2.14,0,0,0,5.54,4.12h1a1.28,1.28,0,0,1,1.41-1c.84,0,1.34.45,1.34,1.19v.51L7.52,5C6.11,5,5.31,5.69,5.31,6.73a1.83,1.83,0,0,0,2,1.83,2.25,2.25,0,0,0,2-1.15h0v2.5A2.86,2.86,0,0,0,8,9.6a2.15,2.15,0,0,0-2.41,1.86h1a1.28,1.28,0,0,1,1.41-1c.84,0,1.34.45,1.34,1.19v.51l-1.75.1c-1.41.08-2.21.74-2.21,1.78a1.83,1.83,0,0,0,2,1.83,2.25,2.25,0,0,0,2-1.15h0V15.8h1V4.24C10.29,3,9.38,2.26,8,2.26ZM9.27,6.14a1.6,1.6,0,0,1-1.7,1.55c-.74,0-1.22-.38-1.22-1s.47-.94,1.29-1l1.63-.1Zm0,7.34A1.6,1.6,0,0,1,7.57,15c-.74,0-1.22-.38-1.22-1s.47-.93,1.29-1L9.27,13Z"/></g></g></svg>