<svg xmlns="http://www.w3.org/2000/svg" viewBox="0 0 1973.54 1771.33"><defs><style>.cls-1{fill:#090800;}</style></defs><g id="Capa_2" data-name="Capa 2"><g id="svg2"><g id="g8"><g id="g10"><path id="path14" class="cls-1" d="M876.06,170.59,124.17,1472.91a127.84,127.84,0,0,0,110.71,191.76H1738.66a127.84,127.84,0,0,0,110.71-191.76L1097.48,170.59a127.84,127.84,0,0,0-221.42,0Zm862.6,1600.74H234.88c-84.78,0-160.7-43.84-203.09-117.25s-42.39-161.09,0-234.51L783.68,117.25C826.07,43.84,902,0,986.77,0s160.69,43.84,203.09,117.25l751.88,1302.32c42.4,73.42,42.4,161.08,0,234.51s-118.3,117.25-203.08,117.25"/><path id="path16" class="cls-1" d="M1099.05,547.51,1046.32,1190a68.21,68.21,0,0,1-136,0L857.63,547.51a121.12,121.12,0,1,1,241.42-19.82,131.12,131.12,0,0,1,0,19.82"/><path id="path18" class="cls-1" d="M1060.4,1404.92a82.08,82.08,0,1,1-82.08-82.08,82.08,82.08,0,0,1,82.08,82.08"/></g></g></g></g></svg>